HIERARCHY
ROOT Hips
{
	OFFSET -3.958830 18.904000 13.208200
	CHANNELS 6 Xposition Yposition Zposition Zrotation Yrotation Xrotation 
	JOINT LHipJoint
	{
		OFFSET 0.000000 0.000000 0.000000
		CHANNELS 3 Zrotation Yrotation Xrotation
		JOINT LeftUpLeg
		{
			OFFSET 1.800000 -1.400000 0.085000
			CHANNELS 3 Zrotation Yrotation Xrotation
			JOINT LeftLeg
			{
				OFFSET 2.215000 -6.000000 0.000000
				CHANNELS 3 Zrotation Yrotation Xrotation
				JOINT LeftFoot
				{
					OFFSET 2.500000 -6.900000 0.000000
					CHANNELS 3 Zrotation Yrotation Xrotation
					JOINT LeftToeBase
					{
						OFFSET 0.200000 -0.500000 1.950000
						CHANNELS 3 Zrotation Yrotation Xrotation
						End Site
						{
							OFFSET 0.000000 0.000000 0.000000
						}
					}
				}
			}
		}
	}
	JOINT RHipJoint
	{
		OFFSET 0.000000 0.000000 0.000000
		CHANNELS 3 Zrotation Yrotation Xrotation
		JOINT RightUpLeg
		{
			OFFSET -1.800000 -1.400000 0.085000
			CHANNELS 3 Zrotation Yrotation Xrotation
			JOINT RightLeg
			{
				OFFSET -2.215000 -6.000000 0.000000
				CHANNELS 3 Zrotation Yrotation Xrotation
				JOINT RightFoot
				{
					OFFSET -2.500000 -6.900000 0.000000
					CHANNELS 3 Zrotation Yrotation Xrotation
					JOINT RightToeBase
					{
						OFFSET -0.200000 -0.500000 1.950000
						CHANNELS 3 Zrotation Yrotation Xrotation
						End Site
						{
							OFFSET 0.000000 0.000000 0.000000
						}
					}
				}
			}
		}
	}
	JOINT LowerBack
	{
		OFFSET 0.000000 0.000000 0.000000
		CHANNELS 3 Zrotation Yrotation Xrotation
		JOINT Spine
		{
			OFFSET -0.087000 1.940000 -0.288900
			CHANNELS 3 Zrotation Yrotation Xrotation
			JOINT Spine1
			{
				OFFSET 0.000000 1.950000 0.060000
				CHANNELS 3 Zrotation Yrotation Xrotation
				JOINT Neck
				{
					OFFSET 0.000000 0.000000 0.000000
					CHANNELS 3 Zrotation Yrotation Xrotation
					JOINT Neck1
					{
						OFFSET 0.000000 1.600000 0.340000
						CHANNELS 3 Zrotation Yrotation Xrotation
						JOINT Head
						{
							OFFSET 0.000000 1.667000 -0.240000
							CHANNELS 3 Zrotation Yrotation Xrotation
							End Site
							{
								OFFSET 0.000000 0.000000 0.000000
							}
						}
					}
				}
				JOINT LeftShoulder
				{
					OFFSET 0.000000 0.000000 0.000000
					CHANNELS 3 Zrotation Yrotation Xrotation
					JOINT LeftArm
					{
						OFFSET 2.700000 1.550000 -0.730000
						CHANNELS 3 Zrotation Yrotation Xrotation
						JOINT LeftForeArm
						{
							OFFSET 5.450000 0.000000 0.000000
							CHANNELS 3 Zrotation Yrotation Xrotation
							JOINT LeftHand
							{
								OFFSET 3.450000 0.000000 0.000000
								CHANNELS 3 Zrotation Yrotation Xrotation
								JOINT LeftHandIndex1
								{
									OFFSET 0.750000 0.000000 0.000000
									CHANNELS 3 Zrotation Yrotation Xrotation
									End Site
									{
										OFFSET 0.000000 0.000000 0.000000
									}
								}
							}
						}
					}
				}
				JOINT RightShoulder
				{
					OFFSET 0.000000 0.000000 0.000000
					CHANNELS 3 Zrotation Yrotation Xrotation
					JOINT RightArm
					{
						OFFSET -2.700000 1.550000 -0.730000
						CHANNELS 3 Zrotation Yrotation Xrotation
						JOINT RightForeArm
						{
							OFFSET -5.450000 0.000000 0.000000
							CHANNELS 3 Zrotation Yrotation Xrotation
							JOINT RightHand
							{
								OFFSET -3.450000 0.000000 0.000000
								CHANNELS 3 Zrotation Yrotation Xrotation
								JOINT RightHandIndex1
								{
									OFFSET -0.750000 0.000000 0.000000
									CHANNELS 3 Zrotation Yrotation Xrotation
									End Site
									{
										OFFSET 0.000000 0.000000 0.000000
									}
								}
							}
						}
					}
				}
			}
		}
	}
}
MOTION
Frames: 12
Frame Time: 0.016667
-0.314390 17.954900 -4.686220 0.523385 6.118266 2.475101 -15.030131 12.832212 2.517378 10.250445 -1.812683 -17.187061 -8.384117 8.207251 21.890045 -0.209465 5.397343 2.789090 -0.107260 -0.139250 -0.272020 18.413660 -11.363500 2.499161 -9.076698 0.409849 -12.100048 5.989834 -4.509005 9.510176 0.115672 -3.834745 3.064717 0.161210 0.711530 0.252060 -4.060198 -0.074411 -6.489179 6.097973 3.028163 1.401498 0.500366 2.379420 7.620605 -1.086389 0.880691 -7.731957 1.929928 -4.180516 20.958200 -5.175620 -2.593250 1.782650 -15.222182 -8.455324 3.604358 -28.493702 -8.657277 -0.359903 13.319819 -10.044621 -1.649842 -4.489138 3.022336 -0.240830 0.595030 -0.409780 0.159100 17.618993 8.835610 3.731317 56.331512 7.664501 1.111213 4.239961 0.890921 -0.422259 2.478445 -1.558761 -0.230760 0.218510 0.242040 0.097930 
-0.305150 17.974600 -4.693560 0.048776 6.762622 2.225490 -15.022407 12.835567 2.497513 10.571467 -1.789683 -16.863359 -8.209853 8.060176 21.418126 -0.195568 5.316974 2.825418 -0.130140 -0.164070 -0.293740 18.409192 -11.399271 2.500246 -9.597938 0.389521 -12.363968 6.855913 -4.818371 10.293957 0.118828 -3.904733 3.042894 0.137670 0.710950 0.233440 -4.076925 -0.014661 -6.505680 5.908214 3.123401 1.414606 -0.074825 2.570120 7.869051 -0.988711 1.245821 -8.066583 2.458222 -5.022445 21.466836 -4.744070 -3.594370 2.399130 -14.433986 -9.448088 3.831547 -28.042805 -9.666389 -0.443841 15.075995 -9.753698 -1.805569 -4.472823 3.018566 -0.243370 0.580420 -0.415350 0.159200 16.598972 9.519877 4.166615 57.870576 7.352464 1.261480 5.262976 -0.602136 -0.278656 2.510354 -1.554484 -0.230810 0.219740 0.243840 0.108820 
-0.273820 18.025110 -4.703920 -0.710100 8.026534 1.713249 -15.004961 12.813419 2.476752 11.363380 -1.700560 -15.861449 -8.486612 7.812295 19.700155 -0.168828 5.161824 2.887770 -0.161720 -0.216160 -0.291690 18.407757 -11.427131 2.521226 -10.592581 0.329636 -12.604768 8.492761 -5.380088 11.143927 0.095266 -4.038840 2.989035 0.079870 0.676300 0.220980 -4.123210 0.077743 -6.571906 6.206517 3.243735 1.449706 -1.186702 2.829082 8.144622 -0.613060 2.114395 -8.665645 3.628478 -6.163528 22.875750 -4.667030 -4.463770 3.355750 -13.524345 -11.227117 4.210984 -27.253420 -11.399567 -0.476406 16.250960 -9.245490 -1.922112 -4.436219 3.003421 -0.218330 0.543390 -0.395250 0.145180 14.865209 10.452385 4.964992 60.668249 6.235074 0.836226 6.068536 -2.087070 -0.089707 2.557241 -1.535730 -0.222160 0.197320 0.239310 0.105780 
-0.241840 18.086040 -4.699360 -1.681876 10.000372 1.063257 -14.996655 12.841427 2.452471 12.156504 -1.621872 -14.933763 -7.974116 7.186276 17.400911 -0.167045 4.853230 2.993143 -0.196360 -0.271490 -0.281950 18.387380 -11.477741 2.524718 -11.814133 0.181925 -12.748404 10.103018 -6.184879 12.726464 0.047833 -4.237227 2.905435 0.008480 0.619120 0.222110 -4.146789 0.105146 -6.652003 6.461470 3.141618 1.658889 -2.464430 2.880918 8.074075 -0.017457 3.551055 -9.345249 5.635021 -7.299208 24.784017 -4.892120 -4.930920 4.174820 -13.505356 -13.232583 4.683567 -25.848388 -12.162767 -1.029431 17.616235 -10.082468 -2.210464 -4.376705 2.980803 -0.171860 0.498660 -0.349090 0.122070 13.544054 11.101564 5.748519 63.365819 4.402375 -0.224427 7.464683 -3.199379 0.022732 2.595473 -1.489940 -0.203550 0.162260 0.237660 0.093470 
-0.210010 18.143740 -4.708080 -2.533120 12.095704 0.659513 -14.994003 12.769170 2.504736 13.265511 -1.686677 -14.527391 -8.599345 6.996499 15.511307 -0.125871 4.758031 3.014865 -0.212440 -0.297490 -0.275530 18.377008 -11.480951 2.497742 -13.387789 0.032621 -13.340833 11.582820 -7.039504 14.460410 0.005059 -4.475876 2.793930 -0.039530 0.575430 0.233810 -4.175746 0.171597 -6.742778 6.621640 3.174679 1.752544 -3.633958 3.031004 7.980417 0.460878 5.119607 -9.904903 8.045225 -8.199052 26.118496 -4.654070 -5.320220 5.094620 -13.179610 -14.940371 4.974501 -24.472083 -13.626214 -1.217755 17.798293 -11.049541 -2.388296 -4.337209 2.984280 -0.155370 0.470290 -0.315850 0.108820 12.146936 11.381311 6.300490 66.349106 2.979629 -1.156068 7.205761 -3.970952 0.181669 2.630337 -1.477815 -0.173260 0.117640 0.229210 0.092230 
-0.177580 18.190070 -4.715050 -3.257397 13.836009 0.344758 -14.992283 12.680083 2.579527 14.265184 -1.806956 -14.485584 -9.382425 6.965458 14.281866 -0.081281 4.753440 3.001751 -0.220460 -0.312720 -0.255830 18.374919 -11.507706 2.428721 -14.648240 -0.164233 -13.999004 11.784046 -7.585024 16.066512 -0.019174 -4.623609 2.712987 -0.074850 0.534420 0.250860 -4.208197 0.282372 -6.795623 6.879329 3.323689 1.638000 -5.086098 3.325678 8.159107 1.148957 6.562679 -10.519159 10.448367 -9.049979 26.783545 -4.889700 -5.340230 5.830250 -11.717386 -16.266923 5.249972 -24.791692 -15.543038 -1.207859 18.451321 -11.850199 -2.651212 -4.312570 2.997634 -0.149030 0.453430 -0.285550 0.094990 9.187228 11.459668 6.774478 69.950602 2.327189 -1.868152 7.899031 -4.749855 0.253138 2.651465 -1.480855 -0.144330 0.072800 0.215790 0.087970 
-0.149550 18.236180 -4.732800 -3.812721 15.731653 0.041589 -15.008247 12.675309 2.670861 14.782623 -1.986479 -14.809881 -9.590337 6.757803 13.163360 -0.076888 4.701513 3.019312 -0.261090 -0.372400 -0.253630 18.351237 -11.585168 2.288669 -15.231831 -0.425230 -14.479243 10.045789 -7.580301 17.599849 0.009775 -4.607201 2.704786 -0.116780 0.528330 0.262780 -4.194405 0.291148 -6.805428 6.847082 3.249223 1.601393 -6.110308 3.345928 8.166218 1.705104 7.775189 -10.926012 12.447222 -9.951498 27.467452 -5.770470 -5.244720 7.376010 -11.262113 -17.386137 5.312685 -24.581901 -17.254529 -1.102446 18.341653 -12.412593 -2.779395 -4.330153 2.984169 -0.153940 0.465330 -0.288390 0.072800 7.519699 11.518268 7.130646 72.432355 1.590041 -2.451697 7.922566 -5.771992 0.375396 2.668839 -1.472429 -0.144050 0.044990 0.228470 0.077570 
-0.123970 18.272780 -4.744120 -4.071606 16.590283 -0.199507 -15.008663 12.704349 2.718346 14.641330 -2.056445 -14.685089 -9.499811 6.521485 12.259225 -0.075968 4.607514 3.057978 -0.294650 -0.423910 -0.253730 18.336313 -11.701020 2.169502 -15.923178 -0.681699 -14.864473 7.807414 -7.228360 18.408633 0.039725 -4.490360 2.738495 -0.156700 0.521270 0.261600 -4.200681 0.343559 -6.798450 6.709196 3.485142 1.606158 -7.245669 3.752941 8.243375 2.136101 8.638194 -11.339475 13.859651 -10.479050 28.616516 -5.693430 -5.401790 8.401600 -10.022193 -17.856375 5.293034 -25.457396 -18.785295 -1.013242 18.415107 -14.056507 -3.076987 -4.312161 2.959066 -0.139180 0.457850 -0.283160 0.055180 5.338303 11.323767 7.502028 74.804733 0.938773 -3.178821 8.364436 -6.070487 0.425365 2.672119 -1.436526 -0.148300 0.036150 0.241470 0.068990 
-0.106840 18.305270 -4.761080 -4.269174 17.165335 -0.351768 -15.027173 12.742372 2.809724 14.758060 -2.161930 -14.577152 -9.889507 6.390557 11.203891 -0.076479 4.601124 3.065656 -0.333620 -0.477940 -0.264350 18.309784 -11.722220 2.054433 -16.596419 -0.924036 -15.247298 5.753775 -6.775592 18.562939 0.071479 -4.333557 2.796458 -0.192370 0.527460 0.254560 -4.151654 0.205796 -6.818913 6.596889 3.289274 1.726722 -8.030687 3.686224 8.207293 2.489406 9.032655 -11.549312 14.396748 -10.118252 29.847627 -5.484430 -4.809220 9.158280 -9.303601 -17.736908 5.160225 -27.103003 -19.734022 -1.071611 19.261924 -15.869689 -3.555521 -4.296098 2.930103 -0.114300 0.457320 -0.283640 0.039860 3.866747 10.764110 7.728220 76.447562 -0.018447 -4.324748 7.958711 -5.020437 0.428287 2.657972 -1.382923 -0.167740 0.040990 0.262780 0.055840 
-0.092170 18.342960 -4.773900 -4.701102 17.875645 -0.711454 -15.034505 12.774691 2.852908 14.709961 -2.143537 -14.036086 -9.560195 5.950421 9.365302 -0.075301 4.468564 3.120390 -0.352490 -0.509320 -0.271200 18.296725 -11.730664 1.990336 -16.862924 -1.104260 -14.947972 4.003845 -6.165045 17.502706 0.088309 -4.139204 2.869517 -0.219380 0.527450 0.250700 -4.143818 0.106739 -6.839354 6.756614 3.004736 1.740639 -8.755523 3.470986 8.328442 2.811099 9.419035 -11.656854 14.938746 -9.624912 31.932214 -4.455860 -4.547530 10.142670 -9.302204 -17.529163 4.925971 -28.769995 -20.780082 -1.040575 20.463103 -17.095937 -4.063628 -4.274958 2.926313 -0.096790 0.444860 -0.279400 0.031720 3.203535 10.080643 7.993356 76.532265 -0.776756 -4.931687 6.469648 -2.753152 0.420126 2.652502 -1.346926 -0.170780 0.036150 0.273830 0.052580 
-0.074530 18.362960 -4.790600 -5.405550 18.191057 -1.133930 -15.032555 12.793221 2.894903 14.937936 -2.078416 -13.432311 -9.206091 5.592279 7.727960 -0.057699 4.374048 3.148335 -0.355970 -0.513720 -0.262520 18.296286 -11.728294 1.949958 -16.494350 -1.157104 -14.886266 2.263089 -5.538878 16.456005 0.093425 -3.925812 2.950125 -0.239640 0.499820 0.258570 -4.158831 0.051774 -6.869590 7.511554 2.829947 1.731366 -9.196639 3.319002 8.669893 3.193244 9.674322 -11.964834 15.285242 -9.510927 33.674313 -4.480900 -4.030630 10.699350 -8.846103 -17.326587 4.900609 -31.121266 -21.551560 -0.837337 20.545128 -19.079711 -4.461547 -4.235883 2.928913 -0.082980 0.429300 -0.254120 0.021780 1.929330 9.559651 8.435106 75.942262 -1.558029 -5.767023 7.033531 -0.188235 0.168991 2.625094 -1.325104 -0.153330 0.014730 0.271300 0.048280 
-0.037310 18.378650 -4.816020 -6.106589 18.304530 -1.483929 -15.025163 12.821412 2.881776 14.798934 -2.005611 -13.025749 -8.390139 5.251387 6.603598 -0.044829 4.269208 3.199776 -0.385390 -0.550350 -0.277330 18.306380 -11.713226 1.951063 -16.096450 -1.132829 -15.135560 1.215873 -5.105419 15.534020 0.127591 -3.792226 3.006791 -0.263330 0.515560 0.263530 -4.194272 0.014293 -6.865115 8.568675 2.416182 1.600698 -9.643328 2.872227 8.991936 3.777342 9.636918 -11.890169 15.176507 -9.217903 34.826875 -4.919030 -3.345780 12.418770 -8.968283 -16.454899 4.706097 -34.066360 -21.932886 -0.668672 20.739823 -21.064250 -4.902954 -4.239211 2.946880 -0.113100 0.450850 -0.276090 0.014110 0.889049 8.592710 8.584145 74.405282 -1.785777 -5.824625 7.103022 1.677671 0.010231 2.612527 -1.335853 -0.149660 -0.005720 0.281510 0.052550 
